<svg xmlns="http://www.w3.org/2000/svg" viewBox="0 0 259.6 101.3"><linearGradient id="a" gradientUnits="userSpaceOnUse" x1="-54.074" y1="-1171.595" x2="-24.564" y2="-1171.595" gradientTransform="matrix(-.973 .549 -.64 -.836 -756.765 -913.507)"><stop offset="0" stop-opacity=".109"/><stop offset=".294"/><stop offset="1" stop-opacity="0"/></linearGradient><path opacity=".5" fill="url(#a)" d="M10.5 0s-1.3.9-3 2.9c-5 14.7 8.8 20.3 8.8 20.3 48.1 19 39.1 53.7 30.4 67.5 8-10.8 29.3-47.4-27.6-70.5 0 0-13.9-5.5-8.6-20.2z"/><linearGradient id="b" gradientUnits="userSpaceOnUse" x1=".792" y1="74.72" x2="42.308" y2="74.72"><stop offset="0" stop-opacity=".109"/><stop offset=".294"/><stop offset="1" stop-opacity="0"/></linearGradient><path opacity=".5" fill="url(#b)" d="M40.1 101.3c.2-8.1-4.9-13.9-10.1-18.2-5.1-4.4-11.8-6.8-17.3-11.4C2.1 63 .2 52.6.9 48.2c3.4 7.5 9.3 12.5 15 16.7 2.9 2.1 5.8 3.9 8.8 5.4 3.4 1.8 6.4 3.9 8.9 6.2 5.1 4.5 8 10 8.5 14.6.7 4.6-.7 8.2-2 10.2z"/><path d="M89.8 35.9c9.3 0 14 4.9 14 4.9l-1.5 1.8s-4.6-4.4-12.5-4.4c-9.6 0-17 7.6-17 17.7 0 10.2 7.3 18.3 17.1 18.3 8.4 0 13.3-5.3 13.3-5.3l1.5 1.7s-5.3 5.9-14.8 5.9c-11.4 0-19.7-9.2-19.7-20.5s8.6-20.1 19.6-20.1zM114.1 36.5h2.4V55h24.9V36.5h2.4v39.2h-2.4V57.2h-24.9v18.5h-2.4V36.5zM175.1 62.2h-16.6l-5 13.6h-2.6l14.7-39.2h2.6l14.7 39.2h-2.6l-5.2-13.6zm-8.3-22.9s-.8 3-1.5 4.7l-6 15.9h15l-6-15.9c-.6-1.7-1.5-4.7-1.5-4.7zM189.9 36.5h11.5c3.6 0 5.5.4 7.1 1.2 3.2 1.6 5.4 4.9 5.4 9.4 0 5.6-3.2 9.8-7.8 10.8v.1s.4.4.9 1.4l8.8 16.3h-2.9l-9.3-17.4h-11.3v17.4h-2.4V36.5zm13 19.6c5.2 0 8.4-3.7 8.4-9 0-3.5-1.7-6.3-4.6-7.6-1.1-.5-2.4-.8-5.5-.8h-9v17.4h10.7zM224.7 36.5h2.4v39.2h-2.4V36.5zM237.9 69.7s4 4.4 10.5 4.4c4.9 0 8.7-3 8.7-7.7 0-11.1-20-8.1-20-20.3 0-5.2 4.6-10.1 11.8-10.1 6.4 0 10 3.6 10 3.6l-1.3 2.1s-3.4-3.4-8.6-3.4c-5.8 0-9.3 3.9-9.3 7.7 0 10.4 20 7.2 20 20.3 0 5.7-4.4 10.2-11.4 10.2-7.7 0-12-4.9-12-4.9l1.6-1.9zM34.4 27.8c.6.3 1.1.7 1.6 1-.5-.3-1.1-.6-1.6-1zM38.5 30.6c.5.3.9.6 1.4 1-.4-.4-.9-.7-1.4-1zM42.5 33.6c.3.2.6.5.8.7-.2-.3-.5-.5-.8-.7zM29.8 25.2c.6.3 1.2.6 1.8 1-.6-.4-1.2-.7-1.8-1zM48.9 39.9c.3.3.6.7.8 1.1-.3-.4-.5-.8-.8-1.1zM9.4.9l-.6.6.6-.6zM24.7 22.7c.6.3 1.1.5 1.7.8-.6-.3-1.1-.6-1.7-.8zM57.3 61.9v-1.1 1.1zM57 58.1c0 .4.1.7.1 1.1 0-.4 0-.8-.1-1.1zM47 37.8c-.2-.3-.5-.5-.7-.8.3.3.5.5.7.8zM10.3.2l.2-.2-.2.2zM55.9 52.4v0zM56.6 55.2c.1.3.1.6.2 1-.1-.3-.1-.6-.2-1zM54.4 48.6c.1.3.3.6.4.9-.1-.2-.2-.5-.4-.9zM51.1 42.7c.3.4.5.7.7 1.1-.2-.3-.5-.7-.7-1.1zM52.9 45.6c.2.4.4.7.6 1.1-.2-.3-.4-.7-.6-1.1zM9.7.7c.2-.2.3-.3.5-.4-.2.1-.3.2-.5.4zM51.8 82.5c.1-.2.2-.3.3-.5-.1.2-.2.4-.3.5zM50.6 84.8c.1-.2.3-.5.4-.7-.1.2-.3.4-.4.7zM53.9 78c.1-.3.2-.6.4-.9-.2.3-.3.6-.4.9zM53 80.2c.1-.2.2-.5.3-.8-.1.3-.2.5-.3.8zM46.7 90.7c.1-.1.2-.3.3-.5 0 .1-.2.3-.3.5zM47.6 89.5c.1-.2.3-.4.4-.6-.1.2-.3.4-.4.6zM48.5 88.1c.1-.2.3-.4.4-.7-.1.2-.2.5-.4.7zM49.5 86.5c.1-.2.3-.5.4-.7-.1.2-.2.5-.4.7z"/><path d="M46.7 90.7c8.7-13.8 17.7-48.5-30.4-67.5 0 0-13.8-5.6-8.8-20.2C3 8.1-4 20.1 2.9 40.6c0 0 6 18 27.9 30.8 21 12.2 13.5 22.3 13.5 22.3s1-1.1 2.4-3zM54.8 75.7c.1-.3.2-.6.3-1-.1.4-.2.7-.3 1zM7.7 2.7c.3-.3.5-.6.7-.8-.2.2-.5.5-.7.8zM57.2 64.7v-1 1zM55.6 73.3l.3-.9-.3.9zM56.9 67.3c0-.2 0-.5.1-.7 0 .3-.1.5-.1.7zM56.3 70.6c.1-.2.1-.5.2-.7-.1.2-.2.4-.2.7z"/></svg>