<?xml version="1.0" encoding="utf-8"?>
<!-- Generator: Adobe Illustrator 18.1.1, SVG Export Plug-In . SVG Version: 6.00 Build 0)  -->
<svg version="1.1" id="Layer_1" xmlns="http://www.w3.org/2000/svg" xmlns:xlink="http://www.w3.org/1999/xlink" x="0px" y="0px"
	 viewBox="0 0 259.6 101.3" enable-background="new 0 0 259.6 101.3" xml:space="preserve">
<g>
	
		<linearGradient id="SVGID_1_" gradientUnits="userSpaceOnUse" x1="-54.0738" y1="-1171.5953" x2="-24.5638" y2="-1171.5953" gradientTransform="matrix(-0.9732 0.5495 -0.64 -0.8355 -756.7654 -913.5072)">
		<stop  offset="0" style="stop-color:#000000;stop-opacity:0.1092"/>
		<stop  offset="0.2938" style="stop-color:#000000"/>
		<stop  offset="1" style="stop-color:#000000;stop-opacity:0"/>
	</linearGradient>
	<path opacity="0.5" fill="url(#SVGID_1_)" d="M10.5,0c0,0-1.3,0.9-3,2.9c-5,14.7,8.8,20.3,8.8,20.3c48.1,19,39.1,53.7,30.4,67.5
		C54.7,79.9,76,43.3,19.1,20.2C19.1,20.2,5.2,14.7,10.5,0z"/>
	<linearGradient id="SVGID_2_" gradientUnits="userSpaceOnUse" x1="0.7918" y1="74.72" x2="42.3079" y2="74.72">
		<stop  offset="0" style="stop-color:#000000;stop-opacity:0.1092"/>
		<stop  offset="0.2938" style="stop-color:#000000"/>
		<stop  offset="1" style="stop-color:#000000;stop-opacity:0"/>
	</linearGradient>
	<path opacity="0.5" fill="url(#SVGID_2_)" d="M40.1,101.3c0.2-8.1-4.9-13.9-10.1-18.2c-5.1-4.4-11.8-6.8-17.3-11.4
		C2.1,63,0.2,52.6,0.9,48.2c3.4,7.5,9.3,12.5,15,16.7c2.9,2.1,5.8,3.9,8.8,5.4c3.4,1.8,6.4,3.9,8.9,6.2c5.1,4.5,8,10,8.5,14.6
		C42.8,95.7,41.4,99.3,40.1,101.3z"/>
	<path d="M89.8,35.9c9.3,0,14,4.9,14,4.9l-1.5,1.8c0,0-4.6-4.4-12.5-4.4c-9.6,0-17,7.6-17,17.7c0,10.2,7.3,18.3,17.1,18.3
		c8.4,0,13.3-5.3,13.3-5.3l1.5,1.7c0,0-5.3,5.9-14.8,5.9c-11.4,0-19.7-9.2-19.7-20.5S78.8,35.9,89.8,35.9z"/>
	<path d="M114.1,36.5h2.4V55h24.9V36.5h2.4v39.2h-2.4V57.2h-24.9v18.5h-2.4V36.5z"/>
	<path d="M175.1,62.2h-16.6l-5,13.6h-2.6l14.7-39.2h2.6l14.7,39.2h-2.6L175.1,62.2z M166.8,39.3c0,0-0.8,3-1.5,4.7l-6,15.9h15
		L168.3,44c-0.6-1.7-1.5-4.7-1.5-4.7H166.8z"/>
	<path d="M189.9,36.5h11.5c3.6,0,5.5,0.4,7.1,1.2c3.2,1.6,5.4,4.9,5.4,9.4c0,5.6-3.2,9.8-7.8,10.8V58c0,0,0.4,0.4,0.9,1.4l8.8,16.3
		h-2.9l-9.3-17.4h-11.3v17.4h-2.4V36.5z M202.9,56.1c5.2,0,8.4-3.7,8.4-9c0-3.5-1.7-6.3-4.6-7.6c-1.1-0.5-2.4-0.8-5.5-0.8h-9v17.4
		H202.9z"/>
	<path d="M224.7,36.5h2.4v39.2h-2.4V36.5z"/>
	<path d="M237.9,69.7c0,0,4,4.4,10.5,4.4c4.9,0,8.7-3,8.7-7.7c0-11.1-20-8.1-20-20.3c0-5.2,4.6-10.1,11.8-10.1c6.4,0,10,3.6,10,3.6
		l-1.3,2.1c0,0-3.4-3.4-8.6-3.4c-5.8,0-9.3,3.9-9.3,7.7c0,10.4,20,7.2,20,20.3c0,5.7-4.4,10.2-11.4,10.2c-7.7,0-12-4.9-12-4.9
		L237.9,69.7z"/>
	<g>
		<path d="M34.4,27.8c0.6,0.3,1.1,0.7,1.6,1C35.5,28.5,34.9,28.2,34.4,27.8z"/>
		<path d="M38.5,30.6c0.5,0.3,0.9,0.6,1.4,1C39.5,31.2,39,30.9,38.5,30.6z"/>
		<path d="M42.5,33.6c0.3,0.2,0.6,0.5,0.8,0.7C43.1,34,42.8,33.8,42.5,33.6z"/>
		<path d="M29.8,25.2c0.6,0.3,1.2,0.6,1.8,1C31,25.8,30.4,25.5,29.8,25.2z"/>
		<path d="M48.9,39.9c0.3,0.3,0.6,0.7,0.8,1.1C49.4,40.6,49.2,40.2,48.9,39.9z"/>
		<path d="M9.4,0.9C9.2,1.1,9,1.3,8.8,1.5C9,1.3,9.2,1.1,9.4,0.9z"/>
		<path d="M24.7,22.7c0.6,0.3,1.1,0.5,1.7,0.8C25.8,23.2,25.3,22.9,24.7,22.7z"/>
		<path d="M57.3,61.9c0-0.4,0-0.7,0-1.1C57.3,61.2,57.3,61.6,57.3,61.9z"/>
		<path d="M57,58.1c0,0.4,0.1,0.7,0.1,1.1C57.1,58.8,57.1,58.4,57,58.1z"/>
		<path d="M47,37.8c-0.2-0.3-0.5-0.5-0.7-0.8C46.6,37.3,46.8,37.5,47,37.8z"/>
		<path d="M10.3,0.2C10.4,0.1,10.5,0,10.5,0S10.4,0.1,10.3,0.2z"/>
		<path d="M55.9,52.4c0,0.1,0,0.1,0,0.2C55.9,52.5,55.9,52.5,55.9,52.4z"/>
		<path d="M56.6,55.2c0.1,0.3,0.1,0.6,0.2,1C56.7,55.9,56.7,55.6,56.6,55.2z"/>
		<path d="M54.4,48.6c0.1,0.3,0.3,0.6,0.4,0.9C54.7,49.3,54.6,49,54.4,48.6z"/>
		<path d="M51.1,42.7c0.3,0.4,0.5,0.7,0.7,1.1C51.6,43.5,51.3,43.1,51.1,42.7z"/>
		<path d="M52.9,45.6c0.2,0.4,0.4,0.7,0.6,1.1C53.3,46.4,53.1,46,52.9,45.6z"/>
		<path d="M9.7,0.7c0.2-0.2,0.3-0.3,0.5-0.4C10,0.4,9.9,0.5,9.7,0.7z"/>
		<path d="M51.8,82.5c0.1-0.2,0.2-0.3,0.3-0.5C52,82.2,51.9,82.4,51.8,82.5z"/>
		<path d="M50.6,84.8c0.1-0.2,0.3-0.5,0.4-0.7C50.9,84.3,50.7,84.5,50.6,84.8z"/>
		<path d="M53.9,78c0.1-0.3,0.2-0.6,0.4-0.9C54.1,77.4,54,77.7,53.9,78z"/>
		<path d="M53,80.2c0.1-0.2,0.2-0.5,0.3-0.8C53.2,79.7,53.1,79.9,53,80.2z"/>
		<path d="M46.7,90.7c0.1-0.1,0.2-0.3,0.3-0.5C47,90.3,46.8,90.5,46.7,90.7z"/>
		<path d="M47.6,89.5c0.1-0.2,0.3-0.4,0.4-0.6C47.9,89.1,47.7,89.3,47.6,89.5z"/>
		<path d="M48.5,88.1c0.1-0.2,0.3-0.4,0.4-0.7C48.8,87.6,48.7,87.9,48.5,88.1z"/>
		<path d="M49.5,86.5c0.1-0.2,0.3-0.5,0.4-0.7C49.8,86,49.7,86.3,49.5,86.5z"/>
		<path d="M46.7,90.7c8.7-13.8,17.7-48.5-30.4-67.5c0,0-13.8-5.6-8.8-20.2C3,8.1-4,20.1,2.9,40.6c0,0,6,18,27.9,30.8
			c21,12.2,13.5,22.3,13.5,22.3S45.3,92.6,46.7,90.7z"/>
		<path d="M54.8,75.7c0.1-0.3,0.2-0.6,0.3-1C55,75.1,54.9,75.4,54.8,75.7z"/>
		<path d="M7.7,2.7c0.3-0.3,0.5-0.6,0.7-0.8C8.2,2.1,7.9,2.4,7.7,2.7z"/>
		<path d="M57.2,64.7c0-0.3,0-0.7,0-1C57.2,64,57.2,64.3,57.2,64.7z"/>
		<path d="M55.6,73.3c0.1-0.3,0.2-0.6,0.3-0.9C55.8,72.7,55.7,73,55.6,73.3z"/>
		<path d="M56.9,67.3c0-0.2,0-0.5,0.1-0.7C57,66.9,56.9,67.1,56.9,67.3z"/>
		<path d="M56.3,70.6c0.1-0.2,0.1-0.5,0.2-0.7C56.4,70.1,56.3,70.3,56.3,70.6z"/>
	</g>
</g>
</svg>
